# xmcd
#
# Track frame offsets:
# 150
# 16537
# 29569
# 41958
# 56162
# 70752
# 86124
# 99116
# 114026
# 127488
# 143045
# 155875
# 168347
# 179149
# 194031
# 209288
# 220350
# 236559
# 250534
# 264498
#
# Disc length: 3688 seconds
#
#
# Revision: 4
# Processed by: cddbd v1.5.2PL0 Copyright (c) Steve Scherf et al.
# Submitted via: FreeRIP 2.945 
#
DISCID=2b0e6614
DTITLE=Trio Parada Dura - As 20 mais - As 20 Mais
DYEAR=1999
DGENRE=Country
TTITLE0=Trio Parada Dura  - Passa Lá
TTITLE1=Trio Parada Dura  - As Andorinhas
TTITLE2=Trio Parada Dura  - Cruz Pesada
TTITLE3=Trio Parada Dura  - Inferno na Vida
TTITLE4=Trio Parada Dura  - Uma Vez por Mês
TTITLE5=Trio Parada Dura  - Blusa Vermelha
TTITLE6=Trio Parada Dura  - Espinho na Cama
TTITLE7=Trio Parada Dura  - Telefone Mudo
TTITLE8=Trio Parada Dura  - Bobeou a Gente Pimba
TTITLE9=Trio Parada Dura  - Não Quero Piedade
TTITLE10=Trio Parada Dura  - Beco sem Saída
TTITLE11=Trio Parada Dura  - Me Mata de Uma Vez
TTITLE12=Trio Parada Dura  - Homem de Pedra
TTITLE13=Trio Parada Dura  - Barco de Papel
TTITLE14=Trio Parada Dura  - Castelo de Amor
TTITLE15=Trio Parada Dura  - Casa da Esquina
TTITLE16=Trio Parada Dura  - O Carro e a Faculdade
TTITLE17=Trio Parada Dura  - Panela Velha
TTITLE18=Trio Parada Dura  - Fuscão Preto
TTITLE19=Trio Parada Dura  - Soca Pilão
EXTD=Trio Parada Dura - As 20 mais
EXTT0=
EXTT1=
EXTT2=
EXTT3=
EXTT4=
EXTT5=
EXTT6=
EXTT7=
EXTT8=
EXTT9=
EXTT10=
EXTT11=
EXTT12=
EXTT13=
EXTT14=
EXTT15=
EXTT16=
EXTT17=
EXTT18=
EXTT19=
PLAYORDER=
